<?xml version="1.0" encoding="utf-8"?>
<!-- Generator: Adobe Illustrator 22.1.0, SVG Export Plug-In . SVG Version: 6.00 Build 0)  -->
<svg version="1.1" id="Layer_1" xmlns="http://www.w3.org/2000/svg" xmlns:xlink="http://www.w3.org/1999/xlink" x="0px" y="0px"
	 viewBox="0 0 550 246.1" style="enable-background:new 0 0 550 246.1;" xml:space="preserve">
<style type="text/css">
	.st0{fill:#FFFFFF;}
	.st1{fill:#0063A6;}
	.st2{fill:#CF3339;}
	.st3{fill:#FFC629;}
</style>
<rect class="st0" width="550" height="246.1"/>
<g>
	<g>
		<g>
			<path class="st1" d="M100.3,203.6v-68.3H122c4.2,0,7.8,0.4,10.8,1.2c3,0.8,5.5,2,7.5,3.5c2,1.5,3.4,3.4,4.3,5.6
				c0.9,2.2,1.4,4.7,1.4,7.5c0,1.7-0.3,3.3-0.8,4.9c-0.5,1.6-1.3,3-2.4,4.3c-1.1,1.3-2.4,2.5-4,3.6c-1.6,1-3.5,1.9-5.6,2.6
				c5,1,8.7,2.8,11.3,5.4c2.5,2.6,3.8,6,3.8,10.3c0,2.9-0.5,5.5-1.6,7.9c-1.1,2.4-2.6,4.4-4.7,6.1c-2,1.7-4.6,3-7.5,4
				c-3,0.9-6.4,1.4-10.2,1.4H100.3z M109.5,165.9h12.2c2.6,0,4.9-0.3,6.8-0.9c1.9-0.6,3.5-1.4,4.7-2.4c1.3-1,2.2-2.2,2.8-3.7
				c0.6-1.4,0.9-3,0.9-4.7c0-4-1.2-6.9-3.6-8.8s-6.2-2.8-11.2-2.8h-12.5V165.9z M109.5,172.5v23.8h14.8c2.6,0,4.9-0.3,6.8-0.9
				c1.9-0.6,3.4-1.5,4.7-2.5c1.2-1.1,2.1-2.4,2.7-3.9s0.9-3.2,0.9-5c0-3.5-1.2-6.3-3.7-8.4c-2.5-2-6.3-3.1-11.3-3.1H109.5z"/>
			<path class="st1" d="M167.6,133.4v70.2h-8.5v-70.2H167.6z"/>
			<path class="st1" d="M187.6,155.3v30.8c0,3.7,0.8,6.5,2.5,8.5c1.7,2,4.2,3,7.6,3c2.5,0,4.8-0.6,7-1.8c2.2-1.2,4.2-2.8,6.1-4.9
				v-35.6h8.5v48.3h-5.1c-1.2,0-2-0.6-2.3-1.8l-0.7-5.2c-2.1,2.3-4.4,4.2-7.1,5.6c-2.6,1.4-5.6,2.1-9,2.1c-2.6,0-5-0.4-7-1.3
				c-2-0.9-3.7-2.1-5.1-3.7c-1.4-1.6-2.4-3.5-3.1-5.8c-0.7-2.3-1-4.7-1-7.5v-30.8H187.6z"/>
			<path class="st1" d="M249.9,154.6c2.9,0,5.6,0.5,8,1.5c2.4,1,4.6,2.4,6.3,4.2c1.8,1.8,3.2,4.1,4.2,6.8c1,2.7,1.5,5.7,1.5,9.2
				c0,1.3-0.1,2.2-0.4,2.7c-0.3,0.4-0.8,0.7-1.6,0.7h-32.1c0.1,3,0.5,5.7,1.2,8c0.8,2.3,1.8,4.1,3.1,5.6c1.3,1.5,2.9,2.6,4.8,3.4
				c1.8,0.7,3.9,1.1,6.2,1.1c2.1,0,4-0.2,5.5-0.7c1.5-0.5,2.9-1,4-1.6c1.1-0.6,2-1.1,2.8-1.6c0.7-0.5,1.4-0.7,1.9-0.7
				c0.7,0,1.2,0.3,1.6,0.8l2.4,3.1c-1,1.3-2.3,2.4-3.8,3.3c-1.5,0.9-3,1.7-4.7,2.3c-1.7,0.6-3.4,1.1-5.2,1.4
				c-1.8,0.3-3.5,0.5-5.3,0.5c-3.3,0-6.4-0.6-9.2-1.7c-2.8-1.1-5.2-2.8-7.3-5c-2-2.2-3.6-4.9-4.8-8.1c-1.1-3.2-1.7-6.9-1.7-11.1
				c0-3.4,0.5-6.5,1.5-9.4c1-2.9,2.5-5.5,4.5-7.6c1.9-2.1,4.3-3.8,7.1-5C243.3,155.2,246.4,154.6,249.9,154.6z M250.1,160.8
				c-4.1,0-7.3,1.2-9.7,3.5c-2.4,2.4-3.8,5.6-4.4,9.8h26.3c0-2-0.3-3.8-0.8-5.4c-0.5-1.6-1.3-3.1-2.4-4.2c-1-1.2-2.3-2.1-3.8-2.8
				C253.8,161.1,252,160.8,250.1,160.8z"/>
			<path class="st1" d="M314.7,137.2c-0.3,0.5-0.6,0.8-0.9,1.1c-0.3,0.2-0.7,0.4-1.2,0.4c-0.5,0-1.2-0.3-1.9-0.8
				c-0.7-0.5-1.6-1.1-2.7-1.8c-1.1-0.7-2.4-1.2-4-1.8c-1.5-0.5-3.4-0.8-5.6-0.8c-2.1,0-3.9,0.3-5.5,0.8c-1.6,0.6-2.9,1.3-4,2.3
				c-1.1,1-1.9,2.1-2.4,3.4c-0.5,1.3-0.8,2.7-0.8,4.2c0,1.9,0.5,3.5,1.4,4.7c0.9,1.3,2.2,2.3,3.7,3.2c1.5,0.9,3.3,1.7,5.2,2.3
				c2,0.7,4,1.3,6,2c2,0.7,4.1,1.5,6,2.4c2,0.9,3.7,2,5.2,3.3c1.5,1.3,2.8,3,3.7,4.9c0.9,1.9,1.4,4.3,1.4,7.1c0,3-0.5,5.8-1.5,8.4
				c-1,2.6-2.5,4.9-4.5,6.8s-4.4,3.5-7.2,4.6s-6.1,1.7-9.7,1.7c-4.4,0-8.4-0.8-12.1-2.4c-3.6-1.6-6.7-3.8-9.3-6.5l2.7-4.4
				c0.3-0.3,0.6-0.6,0.9-0.9c0.4-0.2,0.8-0.4,1.2-0.4c0.7,0,1.4,0.4,2.3,1.1c0.9,0.7,1.9,1.5,3.2,2.4c1.3,0.9,2.8,1.6,4.7,2.4
				c1.8,0.7,4.1,1.1,6.7,1.1c2.2,0,4.1-0.3,5.9-0.9c1.7-0.6,3.2-1.5,4.4-2.5c1.2-1.1,2.1-2.4,2.7-3.9c0.6-1.5,1-3.2,1-5.1
				c0-2.1-0.5-3.8-1.4-5.1c-0.9-1.3-2.2-2.4-3.7-3.3c-1.5-0.9-3.3-1.6-5.2-2.3c-2-0.6-4-1.3-6-1.9c-2-0.7-4-1.4-6-2.3
				c-2-0.9-3.7-2-5.2-3.3c-1.5-1.4-2.8-3.1-3.7-5.1c-0.9-2-1.4-4.6-1.4-7.6c0-2.4,0.5-4.7,1.4-7c0.9-2.3,2.3-4.3,4.1-6
				c1.8-1.7,4-3.1,6.6-4.2c2.6-1,5.6-1.6,9-1.6c3.8,0,7.3,0.6,10.4,1.8c3.1,1.2,5.9,3,8.2,5.2L314.7,137.2z"/>
			<path class="st1" d="M341.1,195.6c-3.8,0-6.7-1.1-8.8-3.2c-2-2.1-3.1-5.2-3.1-9.2v-29.5h-5.8c-0.5,0-0.9-0.2-1.3-0.5
				c-0.3-0.3-0.5-0.8-0.5-1.4v-3.4l7.9-1l2-14.9c0.1-0.5,0.3-0.9,0.6-1.2c0.3-0.3,0.8-0.5,1.3-0.5h4.3v16.6h13.8v6.1h-13.8v29
				c0,2,0.5,3.5,1.5,4.5c1,1,2.3,1.5,3.8,1.5c0.9,0,1.7-0.1,2.3-0.4c0.7-0.2,1.2-0.5,1.7-0.8c0.5-0.3,0.9-0.5,1.2-0.8
				c0.3-0.2,0.6-0.4,0.9-0.4c0.4,0,0.8,0.3,1.2,0.8l2.5,4c-1.5,1.4-3.2,2.4-5.3,3.2C345.4,195.2,343.3,195.6,341.1,195.6z"/>
			<path class="st1" d="M378.7,145.8c2.9,0,5.6,0.5,8,1.5c2.4,1,4.6,2.4,6.3,4.2s3.2,4.1,4.2,6.8c1,2.7,1.5,5.7,1.5,9.2
				c0,1.3-0.1,2.2-0.4,2.7c-0.3,0.4-0.8,0.7-1.6,0.7h-32.1c0.1,3,0.5,5.7,1.2,8c0.8,2.3,1.8,4.1,3.1,5.6c1.3,1.5,2.9,2.6,4.8,3.4
				c1.8,0.7,3.9,1.1,6.2,1.1c2.1,0,4-0.2,5.5-0.7c1.5-0.5,2.9-1,4-1.6c1.1-0.6,2-1.1,2.8-1.6c0.7-0.5,1.4-0.7,1.9-0.7
				c0.7,0,1.2,0.3,1.6,0.8l2.4,3.1c-1,1.3-2.3,2.4-3.8,3.3c-1.5,0.9-3,1.7-4.7,2.3c-1.7,0.6-3.4,1.1-5.2,1.4
				c-1.8,0.3-3.5,0.5-5.3,0.5c-3.3,0-6.4-0.6-9.2-1.7c-2.8-1.1-5.2-2.8-7.3-5c-2-2.2-3.6-4.9-4.8-8.1c-1.1-3.2-1.7-6.9-1.7-11.1
				c0-3.4,0.5-6.5,1.5-9.4c1-2.9,2.5-5.5,4.5-7.6c1.9-2.1,4.3-3.8,7.1-5C372.1,146.4,375.2,145.8,378.7,145.8z M378.9,152
				c-4.1,0-7.3,1.2-9.7,3.5c-2.4,2.4-3.8,5.6-4.4,9.8h26.3c0-2-0.3-3.8-0.8-5.4c-0.5-1.6-1.3-3.1-2.4-4.2c-1-1.2-2.3-2.1-3.8-2.8
				C382.6,152.3,380.9,152,378.9,152z"/>
			<path class="st1" d="M407.2,211.1v-64.6h5.1c1.2,0,2,0.6,2.3,1.8l0.7,5.7c2.1-2.5,4.4-4.5,7.1-6.1c2.7-1.5,5.7-2.3,9.2-2.3
				c2.8,0,5.3,0.5,7.5,1.6c2.3,1.1,4.2,2.6,5.8,4.7c1.6,2.1,2.8,4.7,3.7,7.7c0.9,3.1,1.3,6.6,1.3,10.6c0,3.6-0.5,6.9-1.4,9.9
				c-1,3.1-2.3,5.7-4.1,8c-1.8,2.2-4,4-6.6,5.3c-2.6,1.3-5.5,1.9-8.7,1.9c-3,0-5.5-0.5-7.6-1.5c-2.1-1-4-2.4-5.6-4.2v21.3H407.2z
				 M428.7,152.5c-2.8,0-5.2,0.6-7.3,1.9c-2.1,1.3-4,3.1-5.7,5.4v23.3c1.6,2.1,3.3,3.6,5.1,4.4c1.9,0.9,3.9,1.3,6.2,1.3
				c4.5,0,7.9-1.6,10.3-4.8c2.4-3.2,3.6-7.8,3.6-13.7c0-3.1-0.3-5.8-0.8-8.1c-0.6-2.3-1.4-4.1-2.4-5.6c-1-1.4-2.3-2.5-3.9-3.2
				C432.3,152.9,430.6,152.5,428.7,152.5z"/>
		</g>
		<g>
			<path class="st1" d="M219.3,80.1c2-5.4,6-9.8,11.2-12.2c2.9-1.4,6-2,9.1-2c3.9,0,7.6,1.1,10.8,3l12.1-17.2
				c-6.8-4.3-14.8-6.7-22.9-6.7c-0.3,0-0.5,0-0.8,0c0.3,1.3,0.5,2.6,0.5,4c0,9.8-7.9,17.7-17.7,17.7c-5.8,0-10.8-2.8-14.1-7.1
				c-5.5,6.3-9,14.2-10.1,22.4l20.9,1.8C218.6,82.5,218.9,81.2,219.3,80.1z"/>
			<path class="st1" d="M235,45.1c-1.6-5.8-7-10.1-13.3-10.1c-7.7,0-13.9,6.2-13.9,13.9c0,2.9,0.9,5.6,2.5,7.8c2.5,3.6,6.7,6,11.4,6
				c7.7,0,13.9-6.2,13.9-13.9C235.6,47.5,235.3,46.3,235,45.1z"/>
		</g>
		<g>
			<path class="st2" d="M264.6,91.2c0-9,6.8-16.4,15.5-17.5c-0.5-1.4-1.1-2.9-1.7-4.3c-3-6.4-7.4-11.7-12.7-15.7l-12,17.2
				c2.4,2,4.4,4.5,5.7,7.4c2.4,5.2,2.7,11.1,0.7,16.6c-1.8,4.8-5.2,8.7-9.6,11.3l8.9,19.1c7.7-4,13.7-10.1,17.6-17.2
				C269.8,105.7,264.6,99.1,264.6,91.2z"/>
			<path class="st2" d="M282.3,77.3c-0.4,0-0.8,0.1-1.1,0.1c-7.1,0.6-12.7,6.5-12.7,13.8c0,6.4,4.4,11.8,10.3,13.4
				c1.1,0.3,2.3,0.5,3.6,0.5c7.7,0,13.9-6.2,13.9-13.9S289.9,77.3,282.3,77.3z"/>
		</g>
		<g>
			<path class="st3" d="M239.7,109.1c-8.4,0-16.1-4.9-19.7-12.5c-1.4-2.9-2-6-2-9.1l-21-1.8c-0.3,6.6,0.9,13.4,3.9,19.8
				c0.7,1.4,1.4,2.7,2.2,4c3.1-2.9,7.3-4.7,11.9-4.7c9.8,0,17.7,7.9,17.7,17.7c0,2.4-0.5,4.7-1.3,6.7c2.7,0.5,5.4,0.9,8.2,0.9
				c5.4,0,10.9-1.1,16.2-3.3l-8.9-19.1C244.7,108.6,242.2,109.1,239.7,109.1z"/>
			<path class="st3" d="M215.2,108.6c-3.8,0-7.3,1.5-9.8,4c-2.5,2.5-4.1,6-4.1,9.8c0,7.7,6.2,13.9,13.9,13.9c5.5,0,10.3-3.3,12.5-8
				c0.8-1.8,1.4-3.8,1.4-5.9C229.1,114.8,222.8,108.6,215.2,108.6z"/>
		</g>
	</g>
</g>
</svg>
