<?xml version="1.0" encoding="utf-8"?>
<!-- Generator: Adobe Illustrator 24.3.0, SVG Export Plug-In . SVG Version: 6.00 Build 0)  -->
<svg version="1.1" id="Layer_1" xmlns="http://www.w3.org/2000/svg" xmlns:xlink="http://www.w3.org/1999/xlink" x="0px" y="0px"
	 viewBox="0 0 161.1 42.3" style="enable-background:new 0 0 161.1 42.3;" xml:space="preserve">
<style type="text/css">
	.st0{fill:#FFFFFF;}
</style>
<g>
	<path class="st0" d="M44.6,8.7V0.2H47c0.5,0,0.9,0,1.2,0.1c0.4,0.1,0.6,0.2,0.9,0.4c0.2,0.2,0.4,0.4,0.5,0.7
		c0.1,0.3,0.2,0.6,0.2,0.9c0,0.2,0,0.4-0.1,0.6c-0.1,0.2-0.2,0.4-0.3,0.6c-0.1,0.2-0.3,0.3-0.5,0.5c-0.2,0.1-0.5,0.2-0.7,0.3
		c0.7,0.1,1.2,0.3,1.5,0.7c0.4,0.3,0.5,0.8,0.5,1.4c0,0.4-0.1,0.7-0.2,1c-0.1,0.3-0.3,0.5-0.6,0.7c-0.2,0.2-0.5,0.4-0.9,0.5
		c-0.4,0.1-0.8,0.2-1.2,0.2H44.6z M45.2,4.2H47c0.4,0,0.7,0,1-0.1c0.3-0.1,0.5-0.2,0.7-0.4c0.2-0.2,0.3-0.3,0.4-0.6
		c0.1-0.2,0.1-0.4,0.1-0.6c0-0.6-0.2-1-0.5-1.3c-0.4-0.3-0.9-0.4-1.7-0.4h-1.8V4.2z M45.2,4.6v3.5h2.1c0.7,0,1.3-0.2,1.7-0.5
		c0.4-0.3,0.6-0.8,0.6-1.3c0-0.3-0.1-0.5-0.2-0.7c-0.1-0.2-0.2-0.4-0.4-0.5c-0.2-0.1-0.4-0.3-0.7-0.3c-0.3-0.1-0.6-0.1-0.9-0.1H45.2
		z"/>
	<path class="st0" d="M52.7,0v8.7h-0.6V0H52.7z"/>
	<path class="st0" d="M55.2,2.7v3.8c0,0.6,0.1,1,0.4,1.3c0.3,0.3,0.6,0.5,1.2,0.5c0.4,0,0.7-0.1,1.1-0.3c0.3-0.2,0.6-0.5,0.9-0.8
		V2.7h0.6v5.9H59c-0.1,0-0.2-0.1-0.2-0.2l-0.1-0.9c-0.3,0.3-0.6,0.6-1,0.8c-0.4,0.2-0.8,0.3-1.2,0.3c-0.3,0-0.6-0.1-0.9-0.2
		c-0.2-0.1-0.5-0.3-0.6-0.4C55,8,54.8,7.7,54.8,7.5c-0.1-0.3-0.1-0.6-0.1-0.9V2.7H55.2z"/>
	<path class="st0" d="M63.5,2.6c0.3,0,0.6,0.1,0.9,0.2c0.3,0.1,0.5,0.3,0.7,0.5c0.2,0.2,0.4,0.5,0.5,0.8c0.1,0.3,0.2,0.7,0.2,1.1
		c0,0.1,0,0.1,0,0.2c0,0-0.1,0-0.1,0h-4.3v0.1c0,0.4,0.1,0.8,0.2,1.2c0.1,0.3,0.3,0.6,0.4,0.8c0.2,0.2,0.4,0.4,0.7,0.5
		c0.3,0.1,0.6,0.2,0.9,0.2c0.3,0,0.6,0,0.8-0.1c0.2-0.1,0.4-0.1,0.6-0.2c0.1-0.1,0.3-0.2,0.4-0.2c0.1-0.1,0.2-0.1,0.2-0.1
		c0.1,0,0.1,0,0.1,0.1l0.2,0.2c-0.1,0.1-0.2,0.2-0.4,0.3c-0.2,0.1-0.3,0.2-0.5,0.3c-0.2,0.1-0.4,0.1-0.6,0.2c-0.2,0-0.4,0.1-0.7,0.1
		c-0.4,0-0.8-0.1-1.1-0.2c-0.3-0.1-0.6-0.3-0.9-0.6c-0.2-0.3-0.4-0.6-0.6-1c-0.1-0.4-0.2-0.8-0.2-1.3c0-0.4,0.1-0.8,0.2-1.2
		c0.1-0.4,0.3-0.7,0.5-0.9C61.7,3.2,62,3,62.3,2.9C62.7,2.7,63,2.6,63.5,2.6z M63.5,3.1c-0.3,0-0.6,0-0.8,0.1
		c-0.2,0.1-0.5,0.2-0.6,0.4c-0.2,0.2-0.3,0.4-0.4,0.6c-0.1,0.3-0.2,0.5-0.2,0.8h3.9c0-0.3,0-0.6-0.1-0.9c-0.1-0.3-0.2-0.5-0.4-0.6
		c-0.2-0.2-0.3-0.3-0.6-0.4C64,3.1,63.7,3.1,63.5,3.1z"/>
	<path class="st0" d="M71.7,1.3c0,0.1-0.1,0.1-0.2,0.1c-0.1,0-0.1,0-0.2-0.1S71.1,1.1,71,1c-0.1-0.1-0.3-0.2-0.5-0.2
		c-0.2-0.1-0.5-0.1-0.8-0.1c-0.3,0-0.6,0-0.8,0.1c-0.2,0.1-0.4,0.2-0.6,0.4c-0.2,0.2-0.3,0.3-0.4,0.5c-0.1,0.2-0.1,0.4-0.1,0.6
		c0,0.3,0.1,0.5,0.2,0.7c0.1,0.2,0.3,0.3,0.5,0.5c0.2,0.1,0.4,0.2,0.7,0.3c0.3,0.1,0.5,0.2,0.8,0.3c0.3,0.1,0.5,0.2,0.8,0.3
		c0.3,0.1,0.5,0.2,0.7,0.4c0.2,0.2,0.4,0.4,0.5,0.6c0.1,0.2,0.2,0.5,0.2,0.9c0,0.4-0.1,0.7-0.2,1c-0.1,0.3-0.3,0.6-0.5,0.8
		c-0.2,0.2-0.5,0.4-0.8,0.5c-0.3,0.1-0.7,0.2-1.1,0.2c-0.6,0-1-0.1-1.4-0.3c-0.4-0.2-0.8-0.5-1.1-0.8L67,7.4c0-0.1,0.1-0.1,0.2-0.1
		c0,0,0.1,0,0.1,0.1s0.1,0.1,0.2,0.2c0.1,0.1,0.2,0.1,0.3,0.2s0.2,0.2,0.4,0.2c0.1,0.1,0.3,0.1,0.5,0.2c0.2,0,0.4,0.1,0.7,0.1
		c0.3,0,0.6-0.1,0.9-0.2c0.3-0.1,0.5-0.2,0.7-0.4c0.2-0.2,0.3-0.4,0.4-0.6c0.1-0.2,0.1-0.5,0.1-0.8c0-0.3-0.1-0.5-0.2-0.7
		c-0.1-0.2-0.3-0.4-0.5-0.5c-0.2-0.1-0.4-0.2-0.7-0.3c-0.3-0.1-0.5-0.2-0.8-0.3c-0.3-0.1-0.5-0.2-0.8-0.3S68.1,4,67.9,3.8
		c-0.2-0.2-0.4-0.4-0.5-0.6c-0.1-0.2-0.2-0.5-0.2-0.9c0-0.3,0.1-0.6,0.2-0.8c0.1-0.3,0.3-0.5,0.5-0.7s0.5-0.4,0.8-0.5
		c0.3-0.1,0.7-0.2,1-0.2c0.4,0,0.8,0.1,1.2,0.2c0.3,0.1,0.7,0.4,1,0.6L71.7,1.3z"/>
	<path class="st0" d="M75.1,8.8c-0.4,0-0.7-0.1-0.9-0.3c-0.2-0.2-0.3-0.6-0.3-1V3.3H73c0,0-0.1,0-0.1,0c0,0,0-0.1,0-0.1V3l1-0.1
		L74,0.8c0,0,0-0.1,0-0.1c0,0,0.1,0,0.1,0h0.3v2.3h1.9v0.4h-1.9v4c0,0.2,0,0.3,0.1,0.4c0,0.1,0.1,0.2,0.2,0.3
		c0.1,0.1,0.2,0.1,0.3,0.2c0.1,0,0.2,0.1,0.3,0.1c0.1,0,0.3,0,0.4-0.1c0.1,0,0.2-0.1,0.3-0.1C76,8,76,8,76.1,8s0.1-0.1,0.1-0.1
		c0,0,0.1,0,0.1,0.1l0.2,0.2c-0.2,0.2-0.3,0.3-0.6,0.4C75.6,8.7,75.4,8.8,75.1,8.8z"/>
	<path class="st0" d="M80,2.6c0.3,0,0.6,0.1,0.9,0.2c0.3,0.1,0.5,0.3,0.7,0.5c0.2,0.2,0.4,0.5,0.5,0.8c0.1,0.3,0.2,0.7,0.2,1.1
		c0,0.1,0,0.1,0,0.2c0,0-0.1,0-0.1,0h-4.3v0.1c0,0.4,0.1,0.8,0.2,1.2c0.1,0.3,0.3,0.6,0.4,0.8c0.2,0.2,0.4,0.4,0.7,0.5
		c0.3,0.1,0.6,0.2,0.9,0.2c0.3,0,0.6,0,0.8-0.1c0.2-0.1,0.4-0.1,0.6-0.2c0.1-0.1,0.3-0.2,0.4-0.2c0.1-0.1,0.2-0.1,0.2-0.1
		c0.1,0,0.1,0,0.1,0.1l0.2,0.2C82.1,8,82,8.1,81.9,8.2c-0.2,0.1-0.3,0.2-0.5,0.3c-0.2,0.1-0.4,0.1-0.6,0.2c-0.2,0-0.4,0.1-0.7,0.1
		c-0.4,0-0.8-0.1-1.1-0.2c-0.3-0.1-0.6-0.3-0.9-0.6c-0.2-0.3-0.4-0.6-0.6-1c-0.1-0.4-0.2-0.8-0.2-1.3c0-0.4,0.1-0.8,0.2-1.2
		C77.6,4,77.8,3.7,78,3.5c0.2-0.3,0.5-0.5,0.8-0.6C79.2,2.7,79.6,2.6,80,2.6z M80,3.1c-0.3,0-0.6,0-0.8,0.1s-0.5,0.2-0.6,0.4
		c-0.2,0.2-0.3,0.4-0.4,0.6C78,4.5,78,4.8,77.9,5.1h3.9c0-0.3,0-0.6-0.1-0.9c-0.1-0.3-0.2-0.5-0.4-0.6c-0.2-0.2-0.3-0.3-0.6-0.4
		C80.5,3.1,80.3,3.1,80,3.1z"/>
	<path class="st0" d="M83.9,10.8v-8h0.3c0.1,0,0.1,0,0.1,0c0,0,0,0.1,0.1,0.1l0.1,0.9C84.7,3.4,85,3.2,85.3,3s0.7-0.3,1.2-0.3
		c0.7,0,1.3,0.3,1.7,0.8c0.4,0.5,0.6,1.3,0.6,2.3c0,0.4-0.1,0.8-0.2,1.2c-0.1,0.4-0.3,0.7-0.5,1s-0.5,0.5-0.8,0.7
		c-0.3,0.2-0.7,0.2-1.1,0.2c-0.4,0-0.8-0.1-1-0.2c-0.3-0.1-0.5-0.4-0.8-0.7v2.9H83.9z M86.4,3.1c-0.4,0-0.7,0.1-1.1,0.3
		c-0.3,0.2-0.6,0.5-0.8,0.9v3.1c0.2,0.3,0.5,0.6,0.8,0.7c0.3,0.1,0.6,0.2,0.9,0.2c0.3,0,0.7-0.1,0.9-0.2c0.3-0.1,0.5-0.3,0.7-0.5
		s0.3-0.5,0.4-0.8c0.1-0.3,0.1-0.7,0.1-1.1c0-0.9-0.2-1.5-0.5-1.9C87.4,3.3,87,3.1,86.4,3.1z"/>
</g>
<g>
	<path class="st0" d="M58.1,26.5v9.6h-4.6v-9.6l-9-15h4c0.4,0,0.7,0.1,0.9,0.3c0.2,0.2,0.4,0.4,0.6,0.7l4.5,8.2
		c0.3,0.5,0.5,1,0.7,1.4s0.4,0.9,0.5,1.3c0.1-0.4,0.3-0.9,0.5-1.3c0.2-0.4,0.4-0.9,0.7-1.4l4.5-8.2c0.1-0.2,0.3-0.5,0.6-0.7
		s0.6-0.3,1-0.3h4L58.1,26.5z"/>
	<path class="st0" d="M91.7,23.8c0,1.8-0.3,3.5-0.9,5s-1.4,2.9-2.5,4s-2.4,2-3.9,2.6c-1.5,0.6-3.2,0.9-5.1,0.9s-3.6-0.3-5.1-0.9
		c-1.5-0.6-2.9-1.5-3.9-2.6s-1.9-2.5-2.5-4c-0.6-1.5-0.9-3.2-0.9-5s0.3-3.5,0.9-5c0.6-1.5,1.4-2.9,2.5-4s2.4-2,3.9-2.6
		c1.5-0.6,3.2-0.9,5.1-0.9s3.6,0.3,5.1,1c1.5,0.6,2.8,1.5,3.9,2.6s1.9,2.4,2.5,4S91.7,22,91.7,23.8z M87,23.8c0-1.3-0.2-2.6-0.5-3.6
		c-0.4-1.1-0.9-2-1.5-2.7c-0.7-0.7-1.5-1.3-2.4-1.7c-1-0.4-2-0.6-3.2-0.6S77,15.3,76,15.7c-1,0.4-1.8,1-2.5,1.7
		c-0.7,0.7-1.2,1.7-1.6,2.7c-0.4,1.1-0.5,2.3-0.5,3.6s0.2,2.6,0.5,3.6c0.4,1.1,0.9,2,1.6,2.7c0.7,0.7,1.5,1.3,2.5,1.7
		c1,0.4,2,0.6,3.2,0.6s2.3-0.2,3.2-0.6c1-0.4,1.8-1,2.4-1.7c0.7-0.7,1.2-1.7,1.5-2.7C86.8,26.3,87,25.1,87,23.8z"/>
	<path class="st0" d="M105.2,32.4c0.9,0,1.7-0.1,2.4-0.4c0.7-0.3,1.3-0.7,1.8-1.2c0.5-0.5,0.9-1.2,1.1-1.9c0.3-0.8,0.4-1.6,0.4-2.6
		V11.5h4.6v14.7c0,1.5-0.2,2.8-0.7,4.1s-1.1,2.3-2,3.2c-0.9,0.9-2,1.6-3.2,2.1c-1.3,0.5-2.7,0.8-4.3,0.8s-3-0.3-4.3-0.8
		c-1.3-0.5-2.3-1.2-3.2-2.1c-0.9-0.9-1.6-2-2-3.2S95,27.7,95,26.2V11.5h4.6v14.7c0,0.9,0.1,1.8,0.4,2.6c0.3,0.8,0.6,1.4,1.1,1.9
		c0.5,0.5,1.1,1,1.8,1.2C103.5,32.2,104.3,32.4,105.2,32.4z"/>
	<path class="st0" d="M137.4,11.5v3.8H130v20.8h-4.6V15.2H118v-3.8H137.4z"/>
	<path class="st0" d="M161.1,36.1h-4.6V25.3h-11.5v10.8h-4.6V11.5h4.6V22h11.5V11.5h4.6V36.1z"/>
</g>
<g>
	<path class="st0" d="M18,22.8c-0.1-0.1-0.2-0.1-0.2,0l-3.1,4.8c-0.1,0.1,0,0.2,0.1,0.1l4.8-3.1c0.1-0.1,0.1-0.2,0-0.2L18,22.8z"/>
	<path class="st0" d="M18.7,4.8C8.4,4.8,0,13.2,0,23.6c0,10.3,8.4,18.7,18.7,18.7c10.3,0,18.7-8.4,18.7-18.7
		C37.5,13.2,29.1,4.8,18.7,4.8z M18.7,38.1c-8,0-14.6-6.5-14.6-14.6c0-8,6.5-14.6,14.6-14.6c8.1,0,14.6,6.5,14.6,14.6
		C33.3,31.6,26.8,38.1,18.7,38.1z"/>
	<path class="st0" d="M29.7,23.8v-0.5c0-0.4,0.3-0.7,0.7-0.7h1.1C31,16.3,26,11.3,19.6,10.8v1.1c0,0.4-0.3,0.7-0.7,0.7h-0.5
		c-0.4,0-0.7-0.3-0.7-0.7v-1.1C11.5,11.3,6.5,16.3,6,22.6h1.1c0.4,0,0.7,0.3,0.7,0.7v0.5c0,0.4-0.3,0.7-0.7,0.7H6
		c0.4,6.3,5.5,11.4,11.8,11.8v-1.1c0-0.4,0.3-0.7,0.7-0.7H19c0.4,0,0.7,0.3,0.7,0.7v1.1C26,35.8,31,30.8,31.5,24.5h-1.1
		C30,24.5,29.7,24.2,29.7,23.8z M26.5,16.3l-5.5,8.3c-0.3,0.5-0.7,0.9-1.2,1.2l-8.3,5.5c-0.3,0.2-0.7-0.2-0.5-0.5l5.5-8.3
		c0.3-0.5,0.7-0.9,1.2-1.2l8.3-5.5C26.3,15.6,26.7,15.9,26.5,16.3z"/>
</g>
</svg>
