<?xml version="1.0" encoding="utf-8"?>
<!-- Generator: Adobe Illustrator 22.1.0, SVG Export Plug-In . SVG Version: 6.00 Build 0)  -->
<svg version="1.1" id="Layer_1" xmlns="http://www.w3.org/2000/svg" xmlns:xlink="http://www.w3.org/1999/xlink" x="0px" y="0px"
	 viewBox="0 0 700 140.4" style="enable-background:new 0 0 700 140.4;" xml:space="preserve">
<style type="text/css">
	.st0{fill:#0063A6;}
	.st1{fill:#FFFFFF;}
	.st2{fill:none;}
	.st3{fill-rule:evenodd;clip-rule:evenodd;fill:#0063A6;}
</style>
<rect class="st0" width="700" height="140.4"/>
<g>
	<path class="st1" d="M180.5,82.9c0.1-0.4,0.3-0.7,0.4-1.1c0.1-0.4,0.3-0.7,0.5-1l19-33.6c0.2-0.3,0.4-0.5,0.5-0.5s0.4-0.1,0.8-0.1
		h2.4V95h-3.1V53.8c0-0.6,0-1.2,0.1-1.9l-19,33.8c-0.3,0.6-0.8,0.9-1.4,0.9h-0.5c-0.6,0-1-0.3-1.4-0.9l-19.5-33.8
		c0.1,0.7,0.1,1.3,0.1,1.9V95h-3V46.6h2.4c0.3,0,0.6,0,0.8,0.1c0.2,0.1,0.4,0.3,0.6,0.5l19.5,33.6C180,81.5,180.3,82.2,180.5,82.9z"
		/>
	<path class="st1" d="M254.9,95h-2.7c-0.3,0-0.6-0.1-0.8-0.3c-0.2-0.2-0.4-0.4-0.5-0.7l-5.7-14h-23.7l-5.7,14
		c-0.1,0.3-0.3,0.5-0.5,0.6c-0.2,0.2-0.5,0.3-0.8,0.3h-2.7l19.8-48.3h3.5L254.9,95z M222.6,77.4h21.7L234.4,53
		c-0.2-0.4-0.3-0.8-0.5-1.3c-0.2-0.5-0.3-1-0.5-1.6c-0.2,0.5-0.3,1.1-0.5,1.6c-0.2,0.5-0.3,0.9-0.5,1.3L222.6,77.4z"/>
	<path class="st1" d="M265,46.7c0.2,0.1,0.4,0.3,0.6,0.5l31.3,41.9c-0.1-0.7-0.1-1.3-0.1-2V46.6h3.1V95h-1.7c-0.5,0-0.9-0.2-1.3-0.7
		l-31.4-42c0.1,0.7,0.1,1.3,0.1,1.9V95h-3V46.6h1.7C264.6,46.6,264.9,46.7,265,46.7z"/>
	<path class="st1" d="M350.6,95h-2.7c-0.3,0-0.6-0.1-0.8-0.3s-0.4-0.4-0.5-0.7l-5.7-14h-23.7l-5.7,14c-0.1,0.3-0.3,0.5-0.5,0.6
		c-0.2,0.2-0.5,0.3-0.8,0.3h-2.7l19.8-48.3h3.5L350.6,95z M318.3,77.4h21.7L330,53c-0.2-0.4-0.3-0.8-0.5-1.3c-0.2-0.5-0.3-1-0.5-1.6
		c-0.2,0.5-0.3,1.1-0.5,1.6c-0.2,0.5-0.3,0.9-0.5,1.3L318.3,77.4z"/>
	<path class="st1" d="M378,92.7c1.7,0,3.2-0.1,4.5-0.3c1.4-0.2,2.6-0.4,3.8-0.8c1.2-0.3,2.3-0.8,3.3-1.2c1.1-0.5,2.1-1,3.2-1.7v-13
		h-9.3c-0.3,0-0.5-0.1-0.6-0.2c-0.2-0.2-0.3-0.3-0.3-0.5V73h13.4v17.2c-1.2,0.8-2.5,1.6-3.8,2.3c-1.3,0.7-2.7,1.2-4.2,1.7
		s-3.1,0.8-4.8,1c-1.7,0.2-3.6,0.4-5.6,0.4c-3.5,0-6.7-0.6-9.5-1.8c-2.9-1.2-5.4-2.8-7.4-5S357.2,84,356,81s-1.7-6.4-1.7-10.2
		c0-3.7,0.6-7.1,1.7-10.2c1.1-3,2.8-5.6,4.9-7.8c2.1-2.2,4.6-3.8,7.6-5c3-1.2,6.3-1.8,10.1-1.8c1.8,0,3.5,0.1,5.1,0.4
		c1.6,0.3,3,0.6,4.4,1.1s2.6,1.1,3.8,1.8c1.2,0.7,2.3,1.5,3.3,2.5l-0.9,1.5c-0.2,0.3-0.5,0.5-0.9,0.5c-0.2,0-0.4,0-0.6-0.1
		c-0.3-0.1-0.8-0.5-1.5-1s-1.5-1-2.6-1.6c-1.1-0.5-2.5-1-4.2-1.5c-1.7-0.4-3.7-0.6-6-0.6c-3.1,0-6,0.5-8.5,1.5
		c-2.5,1-4.7,2.4-6.5,4.3s-3.2,4.1-4.1,6.8s-1.5,5.7-1.5,9.1c0,3.4,0.5,6.5,1.5,9.2c1,2.7,2.4,5,4.1,6.9s3.9,3.3,6.4,4.3
		S375,92.7,378,92.7z"/>
	<path class="st1" d="M437.4,46.6v2.9h-25.5v19.5h21.2v2.8h-21.2v20.2h25.5V95h-29V46.6H437.4z"/>
	<path class="st1" d="M460.4,72.4V95h-11.9V30.8h20.9c4.3,0,8,0.5,11.1,1.5c3.1,1,5.7,2.4,7.8,4.2c2,1.8,3.6,4,4.5,6.5
		c1,2.5,1.5,5.3,1.5,8.3c0,3.1-0.5,6-1.6,8.5c-1,2.6-2.6,4.8-4.7,6.7s-4.7,3.3-7.8,4.4c-3.1,1-6.7,1.6-10.9,1.6H460.4z M460.4,63h9
		c2.2,0,4.1-0.3,5.7-0.8c1.6-0.5,3-1.3,4-2.4c1.1-1,1.9-2.3,2.4-3.7c0.5-1.5,0.8-3.1,0.8-4.9c0-1.7-0.3-3.3-0.8-4.7
		c-0.5-1.4-1.3-2.6-2.4-3.6c-1.1-1-2.4-1.7-4-2.2c-1.6-0.5-3.5-0.8-5.7-0.8h-9V63z"/>
	<path class="st1" d="M515.9,69.9V95H504V30.8h19.6c4.4,0,8.1,0.5,11.3,1.4c3.1,0.9,5.7,2.2,7.7,3.8c2,1.6,3.5,3.6,4.4,5.8
		c0.9,2.3,1.4,4.8,1.4,7.5c0,2.2-0.3,4.2-1,6.1c-0.6,1.9-1.6,3.7-2.8,5.2c-1.2,1.6-2.7,2.9-4.4,4.1c-1.8,1.2-3.8,2.1-6,2.8
		c1.5,0.9,2.8,2.1,3.9,3.7L554.1,95h-10.7c-1,0-1.9-0.2-2.6-0.6c-0.7-0.4-1.3-1-1.8-1.8L525.4,72c-0.5-0.8-1.1-1.3-1.7-1.6
		c-0.6-0.3-1.5-0.5-2.7-0.5H515.9z M515.9,61.3h7.5c2.2,0,4.2-0.3,5.9-0.8c1.7-0.6,3-1.3,4.1-2.3c1.1-1,1.9-2.2,2.4-3.5
		c0.5-1.4,0.8-2.9,0.8-4.5c0-3.3-1.1-5.8-3.2-7.5c-2.1-1.7-5.4-2.6-9.8-2.6h-7.6V61.3z"/>
	<path class="st1" d="M621.2,62.9c0,4.7-0.8,9.1-2.4,13.1c-1.6,4-3.8,7.5-6.6,10.4c-2.8,2.9-6.3,5.2-10.3,6.9s-8.4,2.5-13.3,2.5
		s-9.3-0.8-13.3-2.5c-4-1.6-7.4-3.9-10.3-6.9c-2.9-2.9-5.1-6.4-6.6-10.4c-1.6-4-2.4-8.4-2.4-13.1c0-4.7,0.8-9.1,2.4-13.1
		c1.6-4,3.8-7.5,6.6-10.4s6.3-5.2,10.3-6.9c4-1.6,8.4-2.5,13.3-2.5s9.3,0.8,13.3,2.5c4,1.7,7.4,3.9,10.3,6.9s5,6.4,6.6,10.4
		C620.4,53.8,621.2,58.2,621.2,62.9z M608.9,62.9c0-3.5-0.5-6.7-1.4-9.5c-0.9-2.8-2.3-5.2-4-7.1c-1.7-2-3.9-3.4-6.4-4.5
		c-2.5-1-5.3-1.6-8.5-1.6s-6,0.5-8.5,1.6c-2.5,1-4.7,2.5-6.4,4.5c-1.8,2-3.1,4.3-4.1,7.1c-0.9,2.8-1.4,6-1.4,9.5
		c0,3.5,0.5,6.7,1.4,9.5c0.9,2.8,2.3,5.2,4.1,7.1c1.8,1.9,3.9,3.4,6.4,4.5c2.5,1,5.3,1.6,8.5,1.6s6-0.5,8.5-1.6
		c2.5-1,4.6-2.5,6.4-4.5c1.7-1.9,3.1-4.3,4-7.1C608.5,69.5,608.9,66.4,608.9,62.9z"/>
</g>
<g>
	<g>
		<rect x="24.9" y="16.9" class="st2" width="106.6" height="106.6"/>
	</g>
	<circle class="st1" cx="78.2" cy="70.2" r="48.8"/>
	<path class="st3" d="M78.2,25.8c-24.5,0-44.4,19.9-44.4,44.4s19.9,44.4,44.4,44.4s44.4-19.9,44.4-44.4S102.7,25.8,78.2,25.8z
		 M78.2,85.9c0.4,0,0.7,0.1,1,0.3l15.9,8.4l-3-17.7c-0.1-0.7,0.1-1.5,0.6-2l12.9-12.6l-17.8-2.6c-0.7-0.1-1.3-0.6-1.7-1.2l-8-16.1
		l-8,16.1c-0.3,0.7-0.9,1.1-1.7,1.2l-17.8,2.6l12.9,12.6c0.5,0.5,0.8,1.2,0.6,2l-3,17.7l15.9-8.4C77.5,86,77.9,85.9,78.2,85.9z"/>
</g>
</svg>
