<?xml version="1.0" encoding="utf-8"?>
<!-- Generator: Adobe Illustrator 22.1.0, SVG Export Plug-In . SVG Version: 6.00 Build 0)  -->
<svg version="1.1" id="Layer_1" xmlns="http://www.w3.org/2000/svg" xmlns:xlink="http://www.w3.org/1999/xlink" x="0px" y="0px"
	 viewBox="0 0 700 140.4" style="enable-background:new 0 0 700 140.4;" xml:space="preserve">
<style type="text/css">
	.st0{fill:none;}
	.st1{fill:#0063A6;}
	.st2{fill:#FFC629;}
	.st3{fill:#FFFFFF;}
	.st4{fill:#CF3339;}
</style>
<rect x="0.6" y="0.7" class="st0" width="700" height="140.4"/>
<g>
	<path class="st1" d="M153,80v20.5h-10.8V42.2h19c3.9,0,7.3,0.5,10.1,1.4c2.8,0.9,5.2,2.2,7.1,3.8c1.9,1.6,3.2,3.6,4.1,5.9
		c0.9,2.3,1.3,4.8,1.3,7.5c0,2.8-0.5,5.4-1.4,7.8s-2.4,4.4-4.2,6.1c-1.9,1.7-4.2,3-7.1,3.9c-2.8,0.9-6.1,1.4-9.9,1.4H153z M153,71.5
		h8.1c2,0,3.7-0.2,5.2-0.7s2.7-1.2,3.7-2.1c1-0.9,1.7-2.1,2.2-3.4c0.5-1.3,0.7-2.8,0.7-4.5c0-1.6-0.2-3-0.7-4.2
		c-0.5-1.3-1.2-2.3-2.2-3.2c-1-0.9-2.2-1.6-3.7-2c-1.5-0.5-3.2-0.7-5.2-0.7H153V71.5z"/>
	<path class="st1" d="M203,91.6h23.3v9h-34.2V42.2H203V91.6z"/>
	<path class="st1" d="M285.1,100.5h-8.4c-0.9,0-1.7-0.2-2.3-0.7c-0.6-0.5-1-1.1-1.3-1.8l-4.4-11.9h-24.2l-4.4,11.9
		c-0.2,0.6-0.6,1.2-1.3,1.7c-0.6,0.5-1.4,0.8-2.3,0.8h-8.4l22.9-58.3h11.1L285.1,100.5z M247.4,78.5H266l-7.1-19.4
		c-0.3-0.9-0.7-1.9-1.1-3c-0.4-1.2-0.8-2.4-1.1-3.8c-0.4,1.4-0.7,2.6-1.1,3.8c-0.4,1.2-0.7,2.2-1.1,3.1L247.4,78.5z"/>
	<path class="st1" d="M326.3,42.2v8.9h-17.5v49.4h-10.8V51.1h-17.6v-8.9H326.3z"/>
	<path class="st1" d="M369.9,42.2v8.6h-25.8v17.3h21.8v8.7h-21.8v23.7h-10.9V42.2H369.9z"/>
	<path class="st1" d="M434.4,71.4c0,4.3-0.7,8.2-2.1,11.9s-3.4,6.8-6,9.5c-2.6,2.7-5.7,4.7-9.3,6.2c-3.6,1.5-7.6,2.2-12.1,2.2
		c-4.4,0-8.4-0.7-12.1-2.2c-3.6-1.5-6.8-3.6-9.4-6.2c-2.6-2.7-4.6-5.8-6-9.5c-1.4-3.6-2.1-7.6-2.1-11.9c0-4.3,0.7-8.2,2.1-11.9
		c1.4-3.6,3.4-6.8,6-9.5c2.6-2.7,5.7-4.7,9.4-6.2c3.6-1.5,7.7-2.2,12.1-2.2c4.4,0,8.4,0.8,12.1,2.3c3.6,1.5,6.7,3.6,9.3,6.2
		c2.6,2.6,4.6,5.8,6,9.4C433.7,63.1,434.4,67.1,434.4,71.4z M423.3,71.4c0-3.2-0.4-6.1-1.3-8.6c-0.9-2.5-2.1-4.7-3.7-6.5
		c-1.6-1.8-3.5-3.1-5.8-4.1c-2.3-0.9-4.8-1.4-7.7-1.4c-2.8,0-5.4,0.5-7.7,1.4c-2.3,0.9-4.2,2.3-5.8,4.1c-1.6,1.8-2.8,3.9-3.7,6.5
		s-1.3,5.4-1.3,8.6c0,3.2,0.4,6.1,1.3,8.6s2.1,4.7,3.7,6.5c1.6,1.8,3.5,3.1,5.8,4.1c2.3,0.9,4.9,1.4,7.7,1.4c2.9,0,5.4-0.5,7.7-1.4
		c2.3-0.9,4.2-2.3,5.8-4.1c1.6-1.8,2.8-3.9,3.7-6.5C422.8,77.5,423.3,74.6,423.3,71.4z"/>
	<path class="st1" d="M454.1,77.7v22.8h-10.8V42.2h17.8c4,0,7.4,0.4,10.2,1.2c2.8,0.8,5.2,2,7,3.4c1.8,1.5,3.1,3.2,4,5.3
		c0.8,2.1,1.3,4.3,1.3,6.8c0,2-0.3,3.8-0.9,5.6c-0.6,1.7-1.4,3.3-2.5,4.8c-1.1,1.4-2.4,2.7-4,3.8c-1.6,1.1-3.4,1.9-5.5,2.6
		c1.4,0.8,2.6,1.9,3.6,3.3l14.6,21.5h-9.8c-0.9,0-1.7-0.2-2.4-0.6c-0.7-0.4-1.2-0.9-1.7-1.6l-12.3-18.7c-0.5-0.7-1-1.2-1.5-1.5
		c-0.6-0.3-1.4-0.4-2.4-0.4H454.1z M454.1,70h6.8c2,0,3.8-0.3,5.3-0.8c1.5-0.5,2.8-1.2,3.7-2.1c1-0.9,1.7-2,2.2-3.2
		c0.5-1.2,0.7-2.6,0.7-4.1c0-3-1-5.2-2.9-6.8c-1.9-1.6-4.9-2.4-8.9-2.4h-6.9V70z"/>
	<path class="st1" d="M526.3,79c0.4,0.9,0.8,1.9,1.1,2.8c0.4-1,0.8-1.9,1.2-2.9c0.4-0.9,0.8-1.8,1.3-2.7L547.2,44
		c0.2-0.4,0.4-0.7,0.7-1c0.2-0.2,0.5-0.4,0.8-0.5c0.3-0.1,0.6-0.2,0.9-0.2c0.3,0,0.8,0,1.2,0h8.2v58.3h-9.6V62.9
		c0-0.7,0-1.5,0.1-2.3c0-0.8,0.1-1.7,0.2-2.5L532,91.1c-0.4,0.8-0.9,1.3-1.6,1.8c-0.6,0.4-1.4,0.6-2.3,0.6h-1.5
		c-0.9,0-1.6-0.2-2.3-0.6c-0.6-0.4-1.2-1-1.6-1.8L505,57.9c0.1,0.9,0.2,1.8,0.2,2.6c0,0.8,0.1,1.6,0.1,2.4v37.7h-9.6V42.2h8.2
		c0.5,0,0.9,0,1.3,0c0.3,0,0.7,0.1,0.9,0.2c0.3,0.1,0.5,0.3,0.8,0.5c0.2,0.2,0.5,0.6,0.7,1L525,76.3C525.5,77.2,525.9,78.1,526.3,79
		z"/>
</g>
<g>
	<g>
		<g>
			<path class="st2" d="M71.4,116.2c-2.5,0-4.9-0.5-6.7-1.4l-35.9-18c-2.9-1.4-3.3-3.3-3.3-4.3s0.4-2.9,3.3-4.3l35.9-18
				c1.8-0.9,4.2-1.4,6.7-1.4s4.9,0.5,6.7,1.4l35.9,18c2.9,1.4,3.3,3.3,3.3,4.3s-0.4,2.9-3.3,4.3l-35.9,18
				C76.2,115.7,73.9,116.2,71.4,116.2z"/>
			<path class="st3" d="M71.4,70.3c2.2,0,4.3,0.4,6,1.2l35.9,18c3.3,1.6,3.3,4.3,0,6l-35.9,18c-1.6,0.8-3.8,1.2-6,1.2
				s-4.3-0.4-6-1.2l-35.9-18c-3.3-1.6-3.3-4.3,0-6l35.9-18C67,70.7,69.2,70.3,71.4,70.3 M71.4,67.3c-2.7,0-5.3,0.6-7.3,1.6l-35.9,18
				c-2.6,1.3-4.1,3.4-4.1,5.7s1.5,4.4,4.1,5.7l35.9,18c2,1,4.6,1.6,7.3,1.6s5.3-0.6,7.3-1.6l35.9-18c2.6-1.3,4.1-3.4,4.1-5.7
				s-1.5-4.4-4.1-5.7l-35.9-18C76.7,67.9,74.1,67.3,71.4,67.3L71.4,67.3z"/>
		</g>
		<g>
			<path class="st4" d="M71.4,94.6c-2.5,0-4.9-0.5-6.7-1.4l-35.9-18c-2.9-1.4-3.3-3.3-3.3-4.3s0.4-2.9,3.3-4.3l35.9-18
				c1.8-0.9,4.2-1.4,6.7-1.4s4.9,0.5,6.7,1.4l35.9,18c2.9,1.4,3.3,3.3,3.3,4.3s-0.4,2.9-3.3,4.3L78,93.2
				C76.2,94.1,73.9,94.6,71.4,94.6z"/>
			<path class="st3" d="M71.4,48.7c2.2,0,4.3,0.4,6,1.2l35.9,18c3.3,1.6,3.3,4.3,0,6l-35.9,18c-1.6,0.8-3.8,1.2-6,1.2
				s-4.3-0.4-6-1.2l-35.9-18c-3.3-1.6-3.3-4.3,0-6l35.9-18C67,49.1,69.2,48.7,71.4,48.7 M71.4,45.7c-2.7,0-5.3,0.6-7.3,1.6l-35.9,18
				c-2.6,1.3-4.1,3.4-4.1,5.7s1.5,4.4,4.1,5.7l35.9,18c2,1,4.6,1.6,7.3,1.6s5.3-0.6,7.3-1.6l35.9-18c2.6-1.3,4.1-3.4,4.1-5.7
				s-1.5-4.4-4.1-5.7l-35.9-18C76.7,46.2,74.1,45.7,71.4,45.7L71.4,45.7z"/>
		</g>
		<g>
			<path class="st1" d="M71.4,72.9c-2.5,0-4.9-0.5-6.7-1.4l-35.9-18c-2.9-1.4-3.3-3.3-3.3-4.3s0.4-2.9,3.3-4.3l35.9-18
				c1.8-0.9,4.2-1.4,6.7-1.4s4.9,0.5,6.7,1.4l35.9,18c2.9,1.4,3.3,3.3,3.3,4.3c0,1-0.4,2.9-3.3,4.3L78,71.5
				C76.2,72.4,73.9,72.9,71.4,72.9z"/>
			<path class="st3" d="M71.4,27.1c2.2,0,4.3,0.4,6,1.2l35.9,18c3.3,1.6,3.3,4.3,0,6l-35.9,18c-1.6,0.8-3.8,1.2-6,1.2
				s-4.3-0.4-6-1.2l-35.9-18c-3.3-1.6-3.3-4.3,0-6l35.9-18C67,27.5,69.2,27.1,71.4,27.1 M71.4,24c-2.7,0-5.3,0.6-7.3,1.6l-35.9,18
				c-2.6,1.3-4.1,3.4-4.1,5.7s1.5,4.4,4.1,5.7l35.9,18c2,1,4.6,1.6,7.3,1.6s5.3-0.6,7.3-1.6l35.9-18c2.6-1.3,4.1-3.4,4.1-5.7
				s-1.5-4.4-4.1-5.7l-35.9-18C76.7,24.6,74.1,24,71.4,24L71.4,24z"/>
		</g>
	</g>
	<rect x="23" y="22.5" class="st0" width="96.8" height="96.8"/>
</g>
<g>
	<path class="st1" d="M142.1,35.6v-20h5.7c1.1,0,2.1,0.1,3,0.3c0.8,0.2,1.5,0.6,2.1,1c0.5,0.4,1,1,1.2,1.6c0.3,0.6,0.4,1.3,0.4,2.1
		c0,0.5-0.1,1-0.3,1.5s-0.4,0.9-0.8,1.4s-0.8,0.8-1.3,1.1c-0.5,0.3-1.1,0.5-1.7,0.7c1.6,0.2,2.8,0.8,3.6,1.6
		c0.8,0.8,1.3,1.9,1.3,3.2c0,0.8-0.2,1.6-0.5,2.3c-0.3,0.7-0.7,1.2-1.3,1.7c-0.6,0.5-1.3,0.8-2.1,1.1c-0.8,0.2-1.8,0.4-2.9,0.4
		H142.1z M143.6,25h4.3c0.9,0,1.7-0.1,2.4-0.4c0.7-0.2,1.2-0.5,1.6-0.9c0.4-0.4,0.7-0.8,0.9-1.3c0.2-0.5,0.3-1,0.3-1.5
		c0-1.3-0.4-2.4-1.3-3.1c-0.9-0.7-2.2-1-3.9-1h-4.3V25z M143.6,26v8.4h5c1.8,0,3.1-0.4,4-1.1c0.9-0.8,1.3-1.8,1.3-3.2
		c0-0.6-0.1-1.2-0.4-1.7c-0.2-0.5-0.6-0.9-1-1.3c-0.5-0.4-1-0.6-1.7-0.8c-0.7-0.2-1.4-0.3-2.2-0.3H143.6z"/>
	<path class="st1" d="M161.3,15.1v20.5H160V15.1H161.3z"/>
	<path class="st1" d="M167.3,21.5v9c0,1.3,0.3,2.4,0.9,3.1c0.6,0.7,1.5,1.1,2.8,1.1c0.9,0,1.8-0.2,2.6-0.7c0.8-0.5,1.5-1.1,2.1-1.9
		V21.5h1.3v14h-0.7c-0.3,0-0.4-0.1-0.4-0.4l-0.1-2.1c-0.6,0.8-1.4,1.5-2.3,1.9s-1.8,0.7-2.8,0.7c-0.8,0-1.5-0.1-2-0.4
		c-0.6-0.2-1.1-0.6-1.5-1.1c-0.4-0.5-0.7-1-0.9-1.7c-0.2-0.6-0.3-1.4-0.3-2.2v-9H167.3z"/>
	<path class="st1" d="M186.8,21.3c0.8,0,1.5,0.1,2.2,0.4c0.7,0.3,1.3,0.7,1.8,1.2c0.5,0.5,0.9,1.2,1.2,1.9c0.3,0.8,0.4,1.6,0.4,2.6
		c0,0.2,0,0.4-0.1,0.4S192.1,28,192,28h-10.1v0.3c0,1.1,0.1,2,0.4,2.8c0.2,0.8,0.6,1.5,1,2c0.5,0.5,1,0.9,1.6,1.2
		c0.6,0.3,1.4,0.4,2.1,0.4c0.7,0,1.3-0.1,1.8-0.2c0.5-0.2,1-0.3,1.3-0.5c0.4-0.2,0.6-0.4,0.8-0.5c0.2-0.2,0.4-0.2,0.5-0.2
		c0.1,0,0.2,0,0.3,0.1l0.4,0.4c-0.2,0.3-0.5,0.5-0.9,0.8c-0.4,0.2-0.8,0.5-1.2,0.6c-0.5,0.2-0.9,0.3-1.5,0.4c-0.5,0.1-1,0.2-1.6,0.2
		c-1,0-1.8-0.2-2.6-0.5c-0.8-0.3-1.5-0.8-2-1.5c-0.6-0.6-1-1.4-1.3-2.3c-0.3-0.9-0.5-2-0.5-3.2c0-1,0.1-1.9,0.4-2.8
		c0.3-0.9,0.7-1.6,1.2-2.2c0.5-0.6,1.2-1.1,2-1.4C184.9,21.5,185.8,21.3,186.8,21.3z M186.8,22.3c-0.7,0-1.4,0.1-1.9,0.3
		c-0.6,0.2-1.1,0.6-1.5,1c-0.4,0.4-0.8,0.9-1,1.5c-0.3,0.6-0.4,1.3-0.5,2h9.2c0-0.8-0.1-1.4-0.3-2c-0.2-0.6-0.5-1.1-0.9-1.5
		c-0.4-0.4-0.8-0.7-1.4-1S187.5,22.3,186.8,22.3z"/>
	<path class="st1" d="M206.3,18c-0.1,0.2-0.2,0.2-0.4,0.2c-0.1,0-0.3-0.1-0.5-0.3c-0.2-0.2-0.5-0.4-0.8-0.6
		c-0.3-0.2-0.7-0.4-1.2-0.6c-0.5-0.2-1.1-0.3-1.8-0.3c-0.7,0-1.4,0.1-1.9,0.3c-0.6,0.2-1,0.5-1.4,0.8c-0.4,0.4-0.7,0.8-0.8,1.2
		c-0.2,0.5-0.3,1-0.3,1.5c0,0.7,0.1,1.2,0.4,1.7c0.3,0.4,0.7,0.8,1.1,1.1s1,0.6,1.6,0.8c0.6,0.2,1.2,0.4,1.8,0.6
		c0.6,0.2,1.2,0.4,1.8,0.7c0.6,0.2,1.1,0.6,1.6,0.9c0.5,0.4,0.9,0.8,1.1,1.4c0.3,0.6,0.4,1.2,0.4,2.1c0,0.8-0.1,1.6-0.4,2.4
		c-0.3,0.7-0.7,1.4-1.2,1.9c-0.5,0.5-1.2,1-2,1.3c-0.8,0.3-1.7,0.5-2.7,0.5c-1.3,0-2.5-0.2-3.4-0.7c-0.9-0.5-1.8-1.1-2.5-1.9
		l0.4-0.6c0.1-0.1,0.2-0.2,0.4-0.2c0.1,0,0.2,0.1,0.3,0.2c0.1,0.1,0.3,0.3,0.5,0.4c0.2,0.2,0.4,0.3,0.7,0.5c0.3,0.2,0.6,0.4,0.9,0.5
		s0.8,0.3,1.2,0.4c0.5,0.1,1,0.2,1.5,0.2c0.8,0,1.5-0.1,2.1-0.4c0.6-0.2,1.1-0.6,1.6-1c0.4-0.4,0.8-0.9,1-1.5
		c0.2-0.6,0.3-1.2,0.3-1.8c0-0.7-0.1-1.3-0.4-1.7c-0.3-0.5-0.7-0.8-1.1-1.1c-0.5-0.3-1-0.6-1.6-0.8c-0.6-0.2-1.2-0.4-1.8-0.6
		c-0.6-0.2-1.2-0.4-1.8-0.7s-1.1-0.6-1.6-0.9c-0.5-0.4-0.9-0.9-1.1-1.4c-0.3-0.6-0.4-1.3-0.4-2.1c0-0.7,0.1-1.3,0.4-1.9
		c0.3-0.6,0.6-1.2,1.1-1.6c0.5-0.5,1.1-0.9,1.8-1.1c0.7-0.3,1.5-0.4,2.5-0.4c1,0,2,0.2,2.8,0.5c0.8,0.3,1.6,0.8,2.3,1.5L206.3,18z"
		/>
	<path class="st1" d="M214.5,35.8c-1,0-1.7-0.3-2.2-0.8c-0.5-0.5-0.8-1.3-0.8-2.4V23h-2c-0.1,0-0.2,0-0.3-0.1
		c-0.1-0.1-0.1-0.1-0.1-0.2v-0.5l2.4-0.2l0.3-5c0-0.1,0-0.2,0.1-0.2c0.1-0.1,0.1-0.1,0.2-0.1h0.6V22h4.4v1h-4.4v9.5
		c0,0.4,0,0.7,0.1,1c0.1,0.3,0.2,0.5,0.4,0.7c0.2,0.2,0.4,0.3,0.6,0.4c0.2,0.1,0.5,0.1,0.8,0.1c0.3,0,0.6-0.1,0.9-0.1
		c0.2-0.1,0.5-0.2,0.6-0.3s0.3-0.2,0.4-0.3c0.1-0.1,0.2-0.1,0.3-0.1c0.1,0,0.2,0,0.2,0.1l0.4,0.6c-0.4,0.4-0.8,0.7-1.4,1
		C215.7,35.7,215.1,35.8,214.5,35.8z"/>
	<path class="st1" d="M226.1,21.3c0.8,0,1.5,0.1,2.2,0.4c0.7,0.3,1.3,0.7,1.8,1.2c0.5,0.5,0.9,1.2,1.2,1.9c0.3,0.8,0.4,1.6,0.4,2.6
		c0,0.2,0,0.4-0.1,0.4c-0.1,0.1-0.2,0.1-0.3,0.1h-10.1v0.3c0,1.1,0.1,2,0.4,2.8c0.2,0.8,0.6,1.5,1,2c0.5,0.5,1,0.9,1.6,1.2
		c0.6,0.3,1.4,0.4,2.1,0.4c0.7,0,1.3-0.1,1.8-0.2c0.5-0.2,1-0.3,1.3-0.5c0.4-0.2,0.6-0.4,0.8-0.5c0.2-0.2,0.4-0.2,0.5-0.2
		c0.1,0,0.2,0,0.3,0.1l0.4,0.4c-0.2,0.3-0.5,0.5-0.9,0.8c-0.4,0.2-0.8,0.5-1.2,0.6c-0.5,0.2-0.9,0.3-1.5,0.4c-0.5,0.1-1,0.2-1.6,0.2
		c-1,0-1.8-0.2-2.6-0.5c-0.8-0.3-1.5-0.8-2-1.5c-0.6-0.6-1-1.4-1.3-2.3c-0.3-0.9-0.5-2-0.5-3.2c0-1,0.1-1.9,0.4-2.8
		c0.3-0.9,0.7-1.6,1.2-2.2c0.5-0.6,1.2-1.1,2-1.4C224.2,21.5,225.1,21.3,226.1,21.3z M226.1,22.3c-0.7,0-1.4,0.1-1.9,0.3
		c-0.6,0.2-1.1,0.6-1.5,1c-0.4,0.4-0.8,0.9-1,1.5c-0.3,0.6-0.4,1.3-0.5,2h9.2c0-0.8-0.1-1.4-0.3-2c-0.2-0.6-0.5-1.1-0.9-1.5
		c-0.4-0.4-0.8-0.7-1.4-1S226.7,22.3,226.1,22.3z"/>
	<path class="st1" d="M235.2,40.6v-19h0.7c0.1,0,0.2,0,0.3,0.1c0.1,0.1,0.1,0.1,0.1,0.3l0.1,2.2c0.6-0.8,1.3-1.5,2.2-2
		c0.8-0.5,1.8-0.7,2.8-0.7c1.7,0,3.1,0.6,4,1.8c1,1.2,1.4,3,1.4,5.4c0,1-0.1,2-0.4,2.9c-0.3,0.9-0.7,1.7-1.2,2.3
		c-0.5,0.7-1.2,1.2-1.9,1.5c-0.8,0.4-1.6,0.6-2.6,0.6c-1,0-1.8-0.2-2.5-0.5c-0.7-0.3-1.3-0.9-1.8-1.6v6.9H235.2z M241.1,22.4
		c-0.9,0-1.8,0.2-2.5,0.7c-0.8,0.5-1.4,1.2-2,2v7.4c0.5,0.8,1.1,1.4,1.8,1.7c0.7,0.3,1.4,0.5,2.2,0.5c0.8,0,1.6-0.1,2.2-0.5
		c0.6-0.3,1.1-0.7,1.6-1.3c0.4-0.6,0.7-1.2,0.9-2c0.2-0.8,0.3-1.6,0.3-2.5c0-2.1-0.4-3.6-1.2-4.6C243.6,22.9,242.5,22.4,241.1,22.4z
		"/>
</g>
</svg>
